<svg version="1.1" xmlns="http://www.w3.org/2000/svg" viewBox="0 0 824.0000305175781 531.3333435058594" width="824.0000305175781" height="531.3333435058594" class="excalidraw-svg">
  <!-- svg-source:excalidraw -->
  
  <defs>
    <style class="style-fonts">
      @font-face {
        font-family: "Virgil";
        src: url("https://excalidraw.com/Virgil.woff2");
      }
      @font-face {
        font-family: "Cascadia";
        src: url("https://excalidraw.com/Cascadia.woff2");
      }
      @font-face {
        font-family: "Assistant";
        src: url("https://excalidraw.com/Assistant-Regular.woff2");
      }
    </style>
    
  </defs>
  <rect x="0" y="0" width="824.0000305175781" height="531.3333435058594" fill="#ffffff"/><g stroke-linecap="round" transform="translate(10 10) rotate(0 402.00001525878906 255.6666717529297)"><path d="M32 0 C241.96 -1.09, 453.05 -1.68, 772 0 M32 0 C215.05 -1.96, 398.68 -2.46, 772 0 M772 0 C792.61 -0.08, 805.16 10.74, 804 32 M772 0 C795.19 0.78, 804.06 12.92, 804 32 M804 32 C805.2 192.31, 804.04 350.77, 804 479.33 M804 32 C805 122.35, 805.06 211.59, 804 479.33 M804 479.33 C804.37 500.71, 793.31 510.32, 772 511.33 M804 479.33 C803.61 499.48, 791.22 511.45, 772 511.33 M772 511.33 C529.51 509.86, 286.16 510.57, 32 511.33 M772 511.33 C493.4 509.65, 215.36 509.52, 32 511.33 M32 511.33 C11.7 509.54, 2 501.98, 0 479.33 M32 511.33 C12.66 510.47, 0.01 502.19, 0 479.33 M0 479.33 C0.1 390.62, 1.02 299.97, 0 32 M0 479.33 C2.1 302.17, 2.35 123.87, 0 32 M0 32 C1.42 11.15, 10 0.6, 32 0 M0 32 C0.55 9.51, 12.22 1.68, 32 0" stroke="#1e1e1e" stroke-width="2" fill="none"/></g><g stroke-linecap="round" transform="translate(175.33334859212243 66.50001780192062) rotate(0 210.83335876464844 147.5)"><path d="M32 0 C121.87 -1.67, 211.69 -2.55, 389.67 0 M32 0 C161.93 -0.61, 291.58 -1.08, 389.67 0 M389.67 0 C410.5 1.21, 423.24 9.07, 421.67 32 M389.67 0 C412.56 1.2, 423.55 10.32, 421.67 32 M421.67 32 C421.34 97.84, 422.48 165.08, 421.67 263 M421.67 32 C422.09 104.87, 422.44 178.2, 421.67 263 M421.67 263 C422.93 284.58, 410.3 296.66, 389.67 295 M421.67 263 C422.41 283.38, 410.25 293.11, 389.67 295 M389.67 295 C284.46 294.89, 180.13 292.74, 32 295 M389.67 295 C290.46 294.23, 192.61 293.78, 32 295 M32 295 C9.49 296.21, -0.97 284.1, 0 263 M32 295 C8.91 295.94, -0.25 285.08, 0 263 M0 263 C1.15 170.9, -0.05 78.89, 0 32 M0 263 C-1.17 180.86, -1.28 99.24, 0 32 M0 32 C1.36 12.08, 12.46 0.2, 32 0 M0 32 C0.21 8.59, 9.53 0.12, 32 0" stroke="#1e1e1e" stroke-width="2" fill="none"/></g></svg>